<?xml version="1.0" encoding="utf-8"?>
<!-- Generator: Adobe Illustrator 16.0.3, SVG Export Plug-In . SVG Version: 6.00 Build 0)  -->
<!DOCTYPE svg PUBLIC "-//W3C//DTD SVG 1.1//EN" "http://www.w3.org/Graphics/SVG/1.1/DTD/svg11.dtd">
<svg version="1.1" id="Layer_1" xmlns="http://www.w3.org/2000/svg" xmlns:xlink="http://www.w3.org/1999/xlink" x="0px" y="0px"
	 width="195px" height="63px" viewBox="0 0 195 63" enable-background="new 0 0 195 63" xml:space="preserve">
<g>
	<g>
		<polygon fill-rule="evenodd" clip-rule="evenodd" fill="#F7971D" points="53.439,18.146 53.439,32.913 53.439,48.323 
			40.093,56.028 27.306,63.411 27.306,33.234 		"/>
		<path fill-rule="evenodd" clip-rule="evenodd" fill="#007E97" d="M26.747,2.091l13.346,7.706l12.377,7.146H1.023l12.377-7.146
			L26.747,2.091L26.747,2.091z M25.783,63.178l-12.382-7.149L0.055,48.323v-15.41V18.615L25.783,63.178z"/>
	</g>
	<g>
		<path fill-rule="evenodd" clip-rule="evenodd" fill="#007E97" d="M94.408,20.694c0,0.864-0.17,1.693-0.512,2.488
			c-0.341,0.796-0.784,1.563-1.329,2.301c-0.545,0.739-1.159,1.449-1.841,2.13c-0.681,0.682-1.352,1.329-2.011,1.943
			c-0.341,0.318-0.71,0.676-1.108,1.074c-0.397,0.398-0.778,0.801-1.142,1.21s-0.688,0.789-0.972,1.142
			c-0.284,0.352-0.46,0.642-0.528,0.869h10.157v4.261H79.377c-0.046-0.25-0.068-0.568-0.068-0.955c0-0.386,0-0.659,0-0.817
			c0-1.091,0.176-2.091,0.528-3c0.352-0.908,0.813-1.755,1.38-2.539s1.21-1.517,1.926-2.198c0.716-0.682,1.426-1.363,2.13-2.045
			c0.545-0.522,1.057-1.017,1.534-1.482s0.897-0.92,1.261-1.363c0.363-0.443,0.647-0.886,0.852-1.33s0.307-0.892,0.307-1.346
			c0-1-0.284-1.704-0.852-2.113c-0.568-0.409-1.272-0.613-2.113-0.613c-0.614,0-1.188,0.096-1.722,0.289
			c-0.534,0.194-1.023,0.42-1.466,0.682c-0.443,0.261-0.824,0.522-1.142,0.784c-0.318,0.261-0.557,0.471-0.716,0.63l-2.522-3.545
			c1-0.932,2.165-1.698,3.494-2.301c1.329-0.602,2.755-0.903,4.278-0.903c1.386,0,2.579,0.16,3.579,0.478
			c1,0.318,1.823,0.767,2.471,1.346c0.648,0.579,1.125,1.284,1.432,2.113C94.255,18.711,94.408,19.648,94.408,20.694z"/>
		<path fill-rule="evenodd" clip-rule="evenodd" fill="#007E97" d="M110.359,38.589c-3.84,0-6.766-1.068-8.776-3.204
			c-2.012-2.137-3.017-5.17-3.017-9.101c0-1.954,0.307-3.698,0.92-5.232c0.613-1.534,1.454-2.829,2.522-3.886
			s2.341-1.858,3.817-2.403c1.477-0.545,3.079-0.818,4.806-0.818c1,0,1.909,0.074,2.728,0.222c0.817,0.148,1.533,0.318,2.147,0.511
			c0.613,0.193,1.124,0.392,1.533,0.597s0.704,0.363,0.886,0.477l-1.533,4.294c-0.728-0.386-1.573-0.715-2.539-0.988
			c-0.966-0.272-2.063-0.409-3.289-0.409c-0.818,0-1.619,0.137-2.403,0.409c-0.784,0.273-1.478,0.71-2.079,1.313
			c-0.602,0.602-1.085,1.38-1.449,2.335c-0.363,0.954-0.545,2.113-0.545,3.476c0,1.091,0.119,2.108,0.357,3.051
			c0.239,0.943,0.626,1.755,1.159,2.437c0.534,0.682,1.233,1.222,2.097,1.619s1.908,0.597,3.136,0.597
			c0.772,0,1.466-0.046,2.079-0.137s1.159-0.199,1.636-0.323c0.478-0.125,0.897-0.268,1.262-0.426
			c0.363-0.16,0.692-0.308,0.988-0.444l1.466,4.261c-0.75,0.455-1.807,0.864-3.17,1.228S112.154,38.589,110.359,38.589z"/>
		<polygon fill-rule="evenodd" clip-rule="evenodd" fill="#007E97" points="137.457,33.544 137.457,38.111 121.676,38.111 
			121.676,14.49 126.993,14.49 126.993,33.544 		"/>
		<rect x="140.865" y="14.49" fill-rule="evenodd" clip-rule="evenodd" fill="#007E97" width="5.317" height="23.621"/>
		<path fill-rule="evenodd" clip-rule="evenodd" fill="#007E97" d="M162.406,38.589c-3.84,0-6.766-1.068-8.776-3.204
			c-2.011-2.137-3.017-5.17-3.017-9.101c0-1.954,0.307-3.698,0.92-5.232c0.614-1.534,1.455-2.829,2.522-3.886
			c1.068-1.057,2.341-1.858,3.817-2.403c1.478-0.545,3.079-0.818,4.807-0.818c1,0,1.908,0.074,2.727,0.222
			c0.818,0.148,1.534,0.318,2.147,0.511c0.613,0.193,1.125,0.392,1.534,0.597c0.408,0.205,0.704,0.363,0.886,0.477l-1.533,4.294
			c-0.728-0.386-1.574-0.715-2.54-0.988c-0.966-0.272-2.062-0.409-3.289-0.409c-0.818,0-1.619,0.137-2.403,0.409
			c-0.783,0.273-1.477,0.71-2.079,1.313c-0.602,0.602-1.085,1.38-1.448,2.335c-0.363,0.954-0.546,2.113-0.546,3.476
			c0,1.091,0.119,2.108,0.358,3.051c0.238,0.943,0.625,1.755,1.159,2.437s1.232,1.222,2.096,1.619s1.908,0.597,3.136,0.597
			c0.772,0,1.466-0.046,2.079-0.137s1.159-0.199,1.636-0.323c0.478-0.125,0.898-0.268,1.262-0.426
			c0.363-0.16,0.693-0.308,0.988-0.444l1.466,4.261c-0.75,0.455-1.807,0.864-3.17,1.228S164.201,38.589,162.406,38.589z"/>
		<path fill-rule="evenodd" clip-rule="evenodd" fill="#007E97" d="M187.646,38.111c-0.478-0.768-1.04-1.603-1.692-2.494
			c-0.648-0.892-1.347-1.789-2.097-2.698s-1.539-1.778-2.357-2.608c-0.818-0.829-1.643-1.568-2.46-2.204v10.004h-5.317V14.49h5.317
			v8.879c1.369-1.437,2.755-2.937,4.164-4.504c1.414-1.568,2.715-3.028,3.908-4.375h6.312c-1.607,1.915-3.227,3.755-4.852,5.522
			c-1.625,1.767-3.34,3.544-5.135,5.334c1.891,1.573,3.715,3.448,5.471,5.606c1.755,2.165,3.441,4.551,5.062,7.158H187.646z"/>
		<path fill-rule="evenodd" clip-rule="evenodd" fill="#F7971D" d="M83.87,44.529c-0.03-0.03-0.112-0.086-0.246-0.168
			s-0.302-0.168-0.504-0.258c-0.201-0.09-0.421-0.168-0.66-0.234c-0.238-0.067-0.477-0.102-0.716-0.102
			c-0.313,0-0.554,0.057-0.722,0.168c-0.167,0.112-0.251,0.276-0.251,0.492c0,0.135,0.037,0.246,0.111,0.336
			c0.075,0.09,0.181,0.17,0.319,0.241c0.138,0.07,0.31,0.136,0.515,0.195s0.442,0.127,0.71,0.201
			c0.38,0.104,0.723,0.219,1.029,0.342s0.567,0.276,0.783,0.458c0.216,0.184,0.382,0.405,0.498,0.666
			c0.116,0.261,0.174,0.574,0.174,0.94c0,0.447-0.084,0.825-0.252,1.136c-0.168,0.31-0.39,0.56-0.666,0.749
			c-0.276,0.19-0.595,0.328-0.957,0.414c-0.361,0.086-0.732,0.129-1.113,0.129c-0.291,0-0.587-0.022-0.889-0.067
			c-0.302-0.045-0.599-0.11-0.89-0.196c-0.291-0.085-0.574-0.188-0.85-0.308c-0.276-0.119-0.53-0.257-0.761-0.413l0.805-1.601
			c0.038,0.038,0.138,0.108,0.302,0.213c0.165,0.104,0.366,0.208,0.604,0.313c0.239,0.104,0.507,0.197,0.806,0.279
			s0.601,0.123,0.907,0.123c0.648,0,0.973-0.197,0.973-0.593c0-0.149-0.049-0.272-0.146-0.369c-0.097-0.097-0.231-0.185-0.403-0.263
			c-0.172-0.079-0.373-0.151-0.604-0.219c-0.231-0.066-0.485-0.142-0.761-0.224c-0.366-0.112-0.683-0.232-0.951-0.363
			s-0.492-0.282-0.671-0.453c-0.179-0.172-0.312-0.369-0.397-0.593c-0.086-0.225-0.128-0.485-0.128-0.784
			c0-0.417,0.079-0.787,0.235-1.107c0.157-0.32,0.37-0.591,0.638-0.812c0.269-0.22,0.58-0.386,0.934-0.497
			c0.354-0.112,0.729-0.168,1.125-0.168c0.284,0,0.56,0.026,0.828,0.078c0.269,0.053,0.524,0.119,0.767,0.201
			c0.243,0.082,0.472,0.176,0.688,0.28c0.216,0.104,0.41,0.208,0.582,0.313L83.87,44.529z"/>
		<path fill-rule="evenodd" clip-rule="evenodd" fill="#F7971D" d="M95.988,50.213c-0.567,0-1.082-0.115-1.544-0.347
			c-0.463-0.231-0.859-0.535-1.191-0.912s-0.59-0.808-0.772-1.292c-0.183-0.485-0.274-0.985-0.274-1.499
			c0-0.522,0.095-1.026,0.285-1.511c0.19-0.485,0.455-0.912,0.794-1.281c0.34-0.369,0.742-0.664,1.208-0.884
			c0.466-0.221,0.976-0.33,1.527-0.33c0.567,0,1.082,0.115,1.544,0.347c0.462,0.231,0.859,0.537,1.191,0.918
			c0.332,0.38,0.588,0.813,0.767,1.297c0.179,0.485,0.269,0.978,0.269,1.478c0,0.521-0.095,1.025-0.285,1.51
			c-0.19,0.485-0.453,0.912-0.789,1.281c-0.336,0.37-0.737,0.666-1.203,0.89C97.049,50.102,96.54,50.213,95.988,50.213
			L95.988,50.213z M94.075,46.185c0,0.307,0.042,0.603,0.128,0.89s0.209,0.543,0.369,0.767c0.161,0.224,0.362,0.402,0.604,0.537
			c0.242,0.135,0.52,0.201,0.833,0.201c0.321,0,0.601-0.07,0.839-0.213c0.239-0.142,0.438-0.326,0.599-0.554
			c0.161-0.227,0.28-0.484,0.358-0.771s0.117-0.58,0.117-0.878c0-0.307-0.043-0.603-0.128-0.89
			c-0.086-0.287-0.211-0.541-0.375-0.762c-0.164-0.22-0.366-0.396-0.604-0.525c-0.239-0.13-0.511-0.195-0.817-0.195
			c-0.321,0-0.601,0.068-0.839,0.206c-0.239,0.139-0.438,0.319-0.599,0.543c-0.161,0.224-0.282,0.479-0.364,0.767
			S94.075,45.887,94.075,46.185z"/>
		<polygon fill-rule="evenodd" clip-rule="evenodd" fill="#F7971D" points="107.535,50.146 107.535,42.202 109.37,42.202 
			109.37,48.534 113.219,48.534 113.219,50.146 		"/>
		<path fill-rule="evenodd" clip-rule="evenodd" fill="#F7971D" d="M123.938,48.579c0.313,0,0.578-0.065,0.795-0.196
			c0.216-0.13,0.392-0.304,0.525-0.52c0.135-0.217,0.229-0.465,0.285-0.744c0.057-0.279,0.084-0.565,0.084-0.856v-4.061h1.835v4.061
			c0,0.553-0.068,1.067-0.206,1.545c-0.139,0.477-0.352,0.895-0.639,1.253c-0.287,0.357-0.652,0.64-1.096,0.845
			c-0.444,0.205-0.973,0.308-1.584,0.308c-0.634,0-1.174-0.108-1.622-0.324c-0.447-0.217-0.812-0.506-1.091-0.867
			c-0.279-0.362-0.484-0.782-0.615-1.259c-0.131-0.478-0.196-0.978-0.196-1.5v-4.061h1.835v4.061c0,0.307,0.03,0.598,0.09,0.873
			c0.06,0.276,0.156,0.522,0.291,0.738c0.135,0.217,0.308,0.389,0.521,0.515C123.362,48.516,123.625,48.579,123.938,48.579z"/>
		<polygon fill-rule="evenodd" clip-rule="evenodd" fill="#F7971D" points="141.594,43.813 139.178,43.813 139.178,50.146 
			137.343,50.146 137.343,43.813 134.914,43.813 134.914,42.202 141.594,42.202 		"/>
		<rect x="149.17" y="42.202" fill-rule="evenodd" clip-rule="evenodd" fill="#F7971D" width="1.834" height="7.943"/>
		<path fill-rule="evenodd" clip-rule="evenodd" fill="#F7971D" d="M162.529,50.213c-0.567,0-1.082-0.115-1.544-0.347
			c-0.463-0.231-0.86-0.535-1.192-0.912c-0.331-0.377-0.589-0.808-0.771-1.292c-0.183-0.485-0.274-0.985-0.274-1.499
			c0-0.522,0.096-1.026,0.285-1.511c0.19-0.485,0.455-0.912,0.795-1.281c0.339-0.369,0.742-0.664,1.208-0.884
			c0.467-0.221,0.976-0.33,1.527-0.33c0.567,0,1.081,0.115,1.544,0.347s0.859,0.537,1.191,0.918c0.332,0.38,0.588,0.813,0.767,1.297
			c0.18,0.485,0.269,0.978,0.269,1.478c0,0.521-0.095,1.025-0.285,1.51c-0.19,0.485-0.453,0.912-0.789,1.281
			c-0.336,0.37-0.736,0.666-1.202,0.89C163.59,50.102,163.081,50.213,162.529,50.213L162.529,50.213z M160.615,46.185
			c0,0.307,0.043,0.603,0.129,0.89s0.209,0.543,0.369,0.767s0.362,0.402,0.604,0.537s0.521,0.201,0.834,0.201
			c0.32,0,0.6-0.07,0.839-0.213c0.238-0.142,0.438-0.326,0.598-0.554c0.161-0.227,0.28-0.484,0.358-0.771
			c0.079-0.287,0.118-0.58,0.118-0.878c0-0.307-0.043-0.603-0.129-0.89s-0.211-0.541-0.375-0.762
			c-0.164-0.22-0.365-0.396-0.604-0.525c-0.238-0.13-0.511-0.195-0.816-0.195c-0.32,0-0.601,0.068-0.839,0.206
			c-0.239,0.139-0.438,0.319-0.599,0.543s-0.282,0.479-0.364,0.767S160.615,45.887,160.615,46.185z"/>
		<polygon fill-rule="evenodd" clip-rule="evenodd" fill="#F7971D" points="175.911,45.604 175.911,50.146 174.076,50.146 
			174.076,42.202 175.508,42.202 179.212,46.867 179.212,42.202 181.046,42.202 181.046,50.146 179.569,50.146 		"/>
		<path fill-rule="evenodd" clip-rule="evenodd" fill="#F7971D" d="M194.015,44.529c-0.03-0.03-0.112-0.086-0.246-0.168
			s-0.302-0.168-0.503-0.258c-0.202-0.09-0.422-0.168-0.66-0.234c-0.239-0.067-0.479-0.102-0.717-0.102
			c-0.313,0-0.554,0.057-0.722,0.168c-0.168,0.112-0.252,0.276-0.252,0.492c0,0.135,0.038,0.246,0.112,0.336s0.181,0.17,0.319,0.241
			c0.138,0.07,0.309,0.136,0.514,0.195c0.206,0.06,0.442,0.127,0.711,0.201c0.38,0.104,0.724,0.219,1.029,0.342
			s0.567,0.276,0.783,0.458c0.216,0.184,0.383,0.405,0.498,0.666s0.173,0.574,0.173,0.94c0,0.447-0.083,0.825-0.251,1.136
			c-0.168,0.31-0.39,0.56-0.666,0.749c-0.276,0.19-0.595,0.328-0.957,0.414c-0.361,0.086-0.732,0.129-1.112,0.129
			c-0.291,0-0.588-0.022-0.89-0.067c-0.303-0.045-0.6-0.11-0.89-0.196c-0.291-0.085-0.575-0.188-0.851-0.308
			c-0.275-0.119-0.529-0.257-0.761-0.413l0.806-1.601c0.037,0.038,0.138,0.108,0.302,0.213s0.366,0.208,0.604,0.313
			c0.238,0.104,0.507,0.197,0.806,0.279s0.601,0.123,0.906,0.123c0.648,0,0.974-0.197,0.974-0.593c0-0.149-0.049-0.272-0.146-0.369
			c-0.098-0.097-0.231-0.185-0.403-0.263c-0.171-0.079-0.372-0.151-0.604-0.219c-0.23-0.066-0.484-0.142-0.761-0.224
			c-0.365-0.112-0.682-0.232-0.951-0.363c-0.268-0.131-0.492-0.282-0.671-0.453c-0.179-0.172-0.311-0.369-0.396-0.593
			c-0.086-0.225-0.129-0.485-0.129-0.784c0-0.417,0.078-0.787,0.234-1.107c0.157-0.32,0.37-0.591,0.638-0.812
			c0.27-0.22,0.58-0.386,0.935-0.497c0.354-0.112,0.729-0.168,1.125-0.168c0.283,0,0.559,0.026,0.827,0.078
			c0.269,0.053,0.524,0.119,0.767,0.201s0.472,0.176,0.688,0.28c0.217,0.104,0.411,0.208,0.582,0.313L194.015,44.529z"/>
	</g>
	<rect x="66.064" y="0" fill-rule="evenodd" clip-rule="evenodd" fill="#007E97" width="1.184" height="61.46"/>
</g>
</svg>
